<svg width="256" height="256" viewBox="0 0 256 256" fill="none" xmlns="http://www.w3.org/2000/svg">
  <rect width="256" height="256" rx="64" fill="#0F172A"/>
  <rect x="16" y="16" width="224" height="224" rx="48" fill="url(#bg)"/>
  <circle cx="92" cy="92" r="34" fill="#FBBF24"/>
  <path
    d="M173 173H87C64.3563 173 46 154.644 46 132C46 109.356 64.3563 91 87 91C89.338 91 91.6303 91.1961 93.862 91.5724C101.675 75.5494 118.119 64.5 137.143 64.5C163.716 64.5 185.25 86.0343 185.25 112.607C185.25 114.863 185.095 117.083 184.793 119.255C198.243 123.883 208 136.656 208 151.708C208 170.657 192.555 186 173.607 186H173V173Z"
    fill="white"
    fill-opacity="0.96"
  />
  <path
    d="M96 183C101.523 183 106 178.523 106 173C106 167.477 96 154 96 154C96 154 86 167.477 86 173C86 178.523 90.4772 183 96 183Z"
    fill="#38BDF8"
  />
  <path
    d="M140 197C145.523 197 150 192.523 150 187C150 181.477 140 168 140 168C140 168 130 181.477 130 187C130 192.523 134.477 197 140 197Z"
    fill="#38BDF8"
  />
  <path
    d="M167 198C172.523 198 177 193.523 177 188C177 182.477 167 169 167 169C167 169 157 182.477 157 188C157 193.523 161.477 198 167 198Z"
    fill="#7DD3FC"
  />
  <defs>
    <linearGradient id="bg" x1="34" y1="28" x2="226" y2="228" gradientUnits="userSpaceOnUse">
      <stop stop-color="#2563EB"/>
      <stop offset="1" stop-color="#0EA5E9"/>
    </linearGradient>
  </defs>
</svg>
